<svg width="54" height="53" viewBox="0 0 54 53" fill="none" xmlns="http://www.w3.org/2000/svg">
<circle cx="26.408" cy="27.0603" r="24.3782" fill="#F2F2F2"/>
<path d="M20.9856 27.7615C22.1205 30.1052 24.0156 31.9954 26.3622 33.1243C26.5353 33.2063 26.7267 33.2417 26.9177 33.2272C27.1086 33.2127 27.2925 33.1488 27.4513 33.0416L30.8978 30.7393C31.05 30.636 31.226 30.573 31.4092 30.5561C31.5924 30.5393 31.7769 30.5691 31.9455 30.6428L38.3974 33.4138C38.6179 33.5056 38.8021 33.6673 38.9217 33.8741C39.0413 34.0808 39.0895 34.3212 39.0591 34.5581C38.8546 36.1541 38.0756 37.621 36.8677 38.6842C35.6599 39.7474 34.1061 40.334 32.497 40.3344C27.5244 40.3344 22.7555 38.3591 19.2394 34.8429C15.7233 31.3268 13.7479 26.5579 13.7479 21.5854C13.7483 19.9763 14.335 18.4224 15.3982 17.2146C16.4613 16.0068 17.9282 15.2277 19.5243 15.0232C19.7612 14.9928 20.0015 15.0411 20.2083 15.1606C20.415 15.2802 20.5767 15.4644 20.6685 15.685L23.4395 22.1506C23.5116 22.3165 23.5417 22.4976 23.5273 22.6779C23.5129 22.8582 23.4543 23.0322 23.3568 23.1846L21.0545 26.6862C20.952 26.8446 20.8919 27.0266 20.8798 27.2149C20.8677 27.4032 20.9042 27.5914 20.9856 27.7615Z" fill="#09A1A8"/>
<path d="M30.2085 16.071C32.0792 16.573 33.7849 17.5583 35.1545 18.9278C36.5241 20.2974 37.5093 22.0032 38.0114 23.8739M29.0643 20.3308C30.1894 20.6297 31.2155 21.2206 32.0387 22.0437C32.8618 22.8669 33.4527 23.893 33.7515 25.0181M20.9856 27.7615C22.1205 30.1052 24.0156 31.9954 26.3622 33.1243C26.5353 33.2063 26.7267 33.2417 26.9177 33.2272C27.1086 33.2127 27.2925 33.1488 27.4513 33.0416L30.8978 30.7393C31.05 30.636 31.226 30.573 31.4092 30.5561C31.5924 30.5393 31.7769 30.5691 31.9455 30.6428L38.3974 33.4138C38.6179 33.5056 38.8021 33.6673 38.9217 33.8741C39.0413 34.0808 39.0895 34.3212 39.0591 34.5581C38.8546 36.1541 38.0756 37.621 36.8677 38.6842C35.6599 39.7474 34.1061 40.334 32.497 40.3344C27.5244 40.3344 22.7555 38.3591 19.2394 34.8429C15.7233 31.3268 13.7479 26.5579 13.7479 21.5854C13.7483 19.9763 14.335 18.4224 15.3982 17.2146C16.4613 16.0068 17.9282 15.2277 19.5243 15.0232C19.7612 14.9928 20.0015 15.0411 20.2083 15.1606C20.415 15.2802 20.5767 15.4644 20.6685 15.685L23.4395 22.1506C23.5116 22.3165 23.5417 22.4976 23.5273 22.6779C23.5129 22.8582 23.4543 23.0322 23.3568 23.1846L21.0545 26.6862C20.952 26.8446 20.8919 27.0266 20.8798 27.2149C20.8677 27.4032 20.9042 27.5914 20.9856 27.7615Z" stroke="#09A1A8" stroke-width="1.3" stroke-linecap="round" stroke-linejoin="round"/>
</svg>
